<svg version="1.0" xmlns="http://www.w3.org/2000/svg" width="400" height="400" viewBox="0 0 300 300"><path d="M137.9 22.85c-22.65 5.9-37.25 27.15-37.35 54.4-.05 6.35-.45 9.75-1.15 9.75-3.6 0-4.15 7.7-1.35 20.25 2.75 12.65 2.8 12.75 5.55 13.95 1.3.65 2.4 1.85 2.4 2.7.05 2.95 4.7 12.9 7.85 16.9 5.95 7.55 4.15 27.45-2.8 31.2-1.15.6-13.45 3.75-27.3 7.05-32.9 7.75-38.6 10.6-43.5 21.65-3.15 7.15-17.2 69.5-16 71.05 1.25 1.6 248.75 1.85 250.35.25 1.15-1.15-13.4-67.9-15.85-72.5-5.2-9.8-11.3-12.75-42.75-20.5-32.4-8.05-32-7.75-32-23.55v-10.4l4-6.15c2.2-3.4 4.7-8.5 5.6-11.35 1.15-3.6 2.45-5.65 4.4-6.75 5.1-2.9 9.3-28.5 5.35-32.45-1.6-1.6-1.9-3.45-2-10.9-.3-36.95-30.75-63.15-63.45-54.6m23.75 3.55c21.9 5.85 37.8 29.8 36 54.35-.4 6.2-.25 7.45 1.3 8.5 4.6 3.25 1.4 26.5-4 29.3-2.05 1.05-3.2 2.9-4.55 7.15-1 3.2-3.8 8.7-6.2 12.3l-4.35 6.5.3 11.2c.55 18.05 1.45 18.7 36.35 27.3 41.4 10.15 37.3 3.9 54.25 83.75l.5 2.25H27.75l.5-2.75c.45-2.7 12.05-53.15 13.85-60.35 2.95-11.85 8.9-15.15 41.4-22.9 36.7-8.75 37.5-9.4 37.5-30.05V142.8l-4.05-4.6c-2.9-3.3-4.65-6.65-6.2-11.9-1.2-4-2.6-7.3-3.2-7.3-5-.1-10.3-27.45-5.55-28.7 1.85-.5 2-1.4 2-10.65.05-37.35 26.3-61.6 57.65-53.25" fill="#fafafa"/></svg>